# File created by Blade
# Date/Time:  Tue Jan 27 20:08:00 2015
#---------------------------------------------------------
:version 1.10
:name HOM
:units
  mass 1.0
  length 1.000000
  angle deg
:documentation
     Acclaim Skeleton File
:root
   axis xyz
   order TX TY TZ RX RY RZ
   position 0.000000 0.000000 0.000000
   orientation 0 0 0
:bonedata
   begin
      id 1
      name Spine_dum
      direction 0.000000 1.000000 0.000000
      length 6.116652
      axis 0.0 0.0 0.0 xyz
   end
   begin
      id 2
      name LeftUpLeg_dum
      direction 1.000000 0.000000 0.000000
      length 4.711765
      axis 0.0 0.0 0.0 xyz
   end
   begin
      id 3
      name RightUpLeg_dum
      direction -1.000000 0.000000 0.000000
      length 4.711765
      axis 0.0 0.0 0.0 xyz
   end
   begin
      id 4
      name Spine
      direction 0.000000 1.000000 0.000000
      length 0.000000
      axis 0.0 0.0 0.0 xyz
      dof rx ry rz
   end
   begin
      id 5
      name Spine_dum1
      direction 0.000000 1.000000 0.000000
      length 15.225563
      axis 0.0 0.0 0.0 xyz
   end
   begin
      id 6
      name Spine_dum2
      direction 0.000000 1.000000 0.000000
      length 8.977654
      axis 0.0 0.0 0.0 xyz
   end
   begin
      id 7
      name Spine_dum3
      direction 0.000000 1.000000 0.000000
      length 8.977654
      axis 0.0 0.0 0.0 xyz
   end
   begin
      id 8
      name Head
      direction 0.000000 1.000000 0.000000
      length 4.527550
      axis 0.0 0.0 0.0 xyz
      dof rx ry rz
   end
   begin
      id 9
      name LeftShoulder
      direction 1.000000 0.000000 0.000000
      length 7.110130
      axis 0.0 0.0 -90.0 xyz
      dof rx ry rz
   end
   begin
      id 10
      name LeftArm
      direction 1.000000 0.000000 0.000000
      length 10.398341
      axis 0.0 0.0 -90.0 xyz
      dof rx ry rz
   end
   begin
      id 11
      name LeftForeArm
      direction 1.000000 0.000000 0.000000
      length 8.888997
      axis 0.0 0.0 -90.0 xyz
      dof ry rz rx
   end
   begin
      id 12
      name LeftHand
      direction 0.000000 0.000000 0.000000
      length 0.000000
      axis 0.0 0.0 -90.0 xyz
      dof rx ry rz
   end
   begin
      id 13
      name LeftHand_dum1
      direction 0.000000 0.000000 0.000000
      length 0.000000
      axis 0.0 0.0 -90.0 xyz
   end
   begin
      id 14
      name LeftHand_dum2
      direction 1.000000 0.000000 0.000000
      length 3.937000
      axis 0.0 0.0 -90.0 xyz
   end
   begin
      id 15
      name LeftHandThumb1
      direction 0.000000 0.000000 1.000000
      length 3.937000
      axis 0.0 0.0 -90.0 xyz
      dof rx rz ry
   end
   begin
      id 16
      name RightShoulder
      direction -1.000000 0.000000 0.000000
      length 7.110130
      axis 0.0 0.0 90.0 xyz
      dof rx ry rz
   end
   begin
      id 17
      name RightArm
      direction -1.000000 0.000000 0.000000
      length 10.398341
      axis 0.0 0.0 90.0 xyz
      dof rx ry rz
   end
   begin
      id 18
      name RightForeArm
      direction -1.000000 0.000000 0.000000
      length 8.888997
      axis 0.0 0.0 90.0 xyz
      dof ry rz rx
   end
   begin
      id 19
      name RightHand
      direction 0.000000 0.000000 0.000000
      length 0.000000
      axis 0.0 0.0 90.0 xyz
      dof rx ry rz
   end
   begin
      id 20
      name RightHand_dum1
      direction 0.000000 0.000000 0.000000
      length 0.000000
      axis 0.0 0.0 90.0 xyz
   end
   begin
      id 21
      name RightHand_dum2
      direction -1.000000 0.000000 0.000000
      length 3.937000
      axis 0.0 0.0 90.0 xyz
   end
   begin
      id 22
      name RightHandThumb1
      direction 0.000000 0.000000 1.000000
      length 3.937000
      axis 0.0 0.0 90.0 xyz
      dof rx rz ry
   end
   begin
      id 23
      name LeftUpLeg
      direction 0.000000 -1.000000 0.000000
      length 15.510451
      axis 0.0 0.0 0.0 xyz
      dof rx ry rz
   end
   begin
      id 24
      name LeftLeg
      direction 0.000000 -1.000000 0.000000
      length 14.858061
      axis 0.0 0.0 0.0 xyz
      dof rx ry rz
   end
   begin
      id 25
      name LeftFoot
      direction 0.000000 -0.258819 0.965926
      length 5.128852
      axis 15.0 0.0 0.0 xyz
      dof rx ry rz
   end
   begin
      id 26
      name LeftToeBase
      direction 0.000000 0.000000 1.000000
      length 2.952750
      axis 0.0 0.0 0.0 xyz
      dof rx ry rz
   end
   begin
      id 27
      name RightUpLeg
      direction 0.000000 -1.000000 0.000000
      length 15.510451
      axis 0.0 0.0 0.0 xyz
      dof rx ry rz
   end
   begin
      id 28
      name RightLeg
      direction 0.000000 -1.000000 0.000000
      length 14.858061
      axis 0.0 0.0 0.0 xyz
      dof rx ry rz
   end
   begin
      id 29
      name RightFoot
      direction 0.000000 -0.258819 0.965926
      length 5.128852
      axis 15.0 0.0 0.0 xyz
      dof rx ry rz
   end
   begin
      id 30
      name RightToeBase
      direction 0.000000 0.000000 1.000000
      length 2.952750
      axis 0.0 0.0 0.0 xyz
      dof rx ry rz
   end
:hierarchy
   begin
      root Spine_dum LeftUpLeg_dum RightUpLeg_dum
      Spine_dum Spine
      LeftUpLeg_dum LeftUpLeg
      RightUpLeg_dum RightUpLeg
      Spine Spine_dum1 Spine_dum2 Spine_dum3
      Spine_dum1 Head
      Spine_dum2 LeftShoulder
      Spine_dum3 RightShoulder
      LeftShoulder LeftArm
      LeftArm LeftForeArm
      LeftForeArm LeftHand
      LeftHand LeftHand_dum1 LeftHand_dum2
      LeftHand_dum1 LeftHandThumb1
      RightShoulder RightArm
      RightArm RightForeArm
      RightForeArm RightHand
      RightHand RightHand_dum1 RightHand_dum2
      RightHand_dum1 RightHandThumb1
      LeftUpLeg LeftLeg
      LeftLeg LeftFoot
      LeftFoot LeftToeBase
      RightUpLeg RightLeg
      RightLeg RightFoot
      RightFoot RightToeBase
   end

# File created by Blade
# Date/Time:  Tue Jan 27 20:07:51 2015
# Frame Rate: 120.000 fps
#------------------------------------------------------
:FULLY-SPECIFIED
:DEGREES
257
root 6.292742 32.251713 -4.819703 -4.797703 41.146047 3.202388
Spine 7.553958 -11.505202 -6.186702
Head 12.527953 -14.041071 1.690274
LeftShoulder -11.414648 -7.067852 30.330870
LeftArm -0.934294 -8.297063 -84.951102
LeftForeArm -6.401028 -0.000000 109.201927
LeftHand 9.321502 -0.000000 13.836655
LeftHandThumb1 -26.253704 0.000000 33.147579
RightShoulder -21.485971 -20.005061 -22.623289
RightArm 11.373436 -27.629795 93.365092
RightForeArm -14.717103 0.000000 23.659543
RightHand 16.351457 -0.000000 4.051000
RightHandThumb1 -24.326973 -0.000000 -32.862282
LeftUpLeg 8.680375 -16.118064 -11.141632
LeftLeg 3.227689 -0.000000 -0.000000
LeftFoot -8.118735 1.790502 -13.731211
LeftToeBase 20.043307 -0.000000 -0.000000
RightUpLeg -39.506699 18.129106 8.618334
RightLeg 70.852369 -0.000000 -0.000000
RightFoot 4.692594 -14.587530 19.220860
RightToeBase 10.143211 -0.000000 -0.000000
258
root 6.296563 32.252524 -4.819852 -4.804843 41.186750 3.214214
Spine 7.550279 -11.583240 -6.206444
Head 12.887865 -13.759319 1.673958
LeftShoulder -11.408095 -7.084679 30.378263
LeftArm -1.014379 -8.368123 -84.920609
LeftForeArm -6.525463 0.000000 109.098929
LeftHand 9.380253 -0.000000 13.831239
LeftHandThumb1 -26.253704 0.000000 33.147579
RightShoulder -21.518268 -19.983805 -22.596141
RightArm 11.382985 -27.609054 93.388234
RightForeArm -14.734922 -0.000000 23.739848
RightHand 16.318286 -0.000000 3.975831
RightHandThumb1 -24.326973 -0.000000 -32.862282
LeftUpLeg 8.719908 -16.096979 -11.151280
LeftLeg 3.195079 -0.000000 -0.000000
LeftFoot -8.046050 1.702285 -13.637862
LeftToeBase 20.008187 -0.000000 -0.000000
RightUpLeg -39.610888 18.204359 8.609454
RightLeg 70.762397 -0.000000 -0.000000
RightFoot 4.740583 -14.551686 19.268841
RightToeBase 10.501660 -0.000000 -0.000000
259
root 6.298315 32.254684 -4.819938 -4.804348 41.219538 3.209875
Spine 7.535861 -11.660343 -6.207198
Head 13.209376 -13.481444 1.638620
LeftShoulder -11.421155 -7.083077 30.397676
LeftArm -1.061446 -8.420975 -84.881665
LeftForeArm -6.673707 -0.000000 109.013900
LeftHand 9.490896 -0.000000 13.825276
LeftHandThumb1 -26.253704 0.000000 33.147579
RightShoulder -21.576775 -19.972772 -22.542691
RightArm 11.405324 -27.626570 93.386678
RightForeArm -14.723263 -0.000000 23.869621
RightHand 16.254403 -0.000000 3.802043
RightHandThumb1 -24.326973 -0.000000 -32.862282
LeftUpLeg 8.731924 -16.039459 -11.133304
LeftLeg 3.142851 -0.000000 -0.000000
LeftFoot -8.002233 1.631174 -13.705567
LeftToeBase 20.098648 -0.000000 -0.000000
RightUpLeg -39.720449 18.254185 8.618799
RightLeg 70.648658 -0.000000 -0.000000
RightFoot 4.875929 -14.523219 19.108772
RightToeBase 10.226439 -0.000000 -0.000000
260
root 6.300147 32.256877 -4.820619 -4.799756 41.245797 3.208258
Spine 7.520132 -11.733927 -6.208050
Head 13.511815 -13.235116 1.588658
LeftShoulder -11.429102 -7.100052 30.400575
LeftArm -1.133179 -8.474289 -84.827266
LeftForeArm -6.795012 -0.000000 108.968942
LeftHand 9.572288 -0.000000 13.719772
LeftHandThumb1 -26.253704 0.000000 33.147579
RightShoulder -21.627257 -19.986196 -22.486100
RightArm 11.434740 -27.588092 93.392335
RightForeArm -14.734693 -0.000000 24.030845
RightHand 16.202571 -0.000000 3.750913
RightHandThumb1 -24.326973 -0.000000 -32.862282
LeftUpLeg 8.738275 -16.010990 -11.123362
LeftLeg 3.129152 -0.000000 -0.000000
LeftFoot -7.942393 1.538861 -13.609821
LeftToeBase 19.984099 -0.000000 -0.000000
RightUpLeg -39.827265 18.282385 8.635683
RightLeg 70.533203 -0.000000 -0.000000
RightFoot 5.018832 -14.450861 18.765472
RightToeBase 10.004137 -0.000000 -0.000000
261
root 6.303695 32.258727 -4.821183 -4.799831 41.283992 3.216699
Spine 7.522059 -11.810956 -6.219693
Head 13.791593 -13.016678 1.542209
LeftShoulder -11.450642 -7.081367 30.386514
LeftArm -1.149193 -8.501199 -84.777777
LeftForeArm -6.901792 -0.000000 108.940472
LeftHand 9.603511 -0.000000 13.628848
LeftHandThumb1 -26.253704 0.000000 33.147579
RightShoulder -21.683047 -19.990022 -22.435045
RightArm 11.421755 -27.491115 93.426422
RightForeArm -14.723534 0.000000 24.236792
RightHand 16.175073 -0.000000 3.811982
RightHandThumb1 -24.326973 -0.000000 -32.862282
LeftUpLeg 8.754271 -15.986540 -11.126362
LeftLeg 3.090296 -0.000000 -0.000000
LeftFoot -7.907843 1.489332 -13.741397
LeftToeBase 20.327842 -0.000000 -0.000000
RightUpLeg -39.908218 18.343935 8.636438
RightLeg 70.411144 -0.000000 -0.000000
RightFoot 5.019438 -14.378249 18.753693
RightToeBase 10.101310 -0.000000 -0.000000
262
root 6.305927 32.260157 -4.822497 -4.800686 41.325969 3.225402
Spine 7.532361 -11.909141 -6.235894
Head 14.048112 -12.791235 1.501067
LeftShoulder -11.483261 -7.095058 30.375832
LeftArm -1.206200 -8.527207 -84.716023
LeftForeArm -7.028133 -0.000000 108.932278
LeftHand 9.672473 -0.000000 13.445920
LeftHandThumb1 -26.253704 0.000000 33.147579
RightShoulder -21.703690 -20.004788 -22.393487
RightArm 11.412378 -27.393026 93.467997
RightForeArm -14.682859 -0.000000 24.471598
RightHand 16.198657 -0.000000 3.754157
RightHandThumb1 -24.326973 -0.000000 -32.862282
LeftUpLeg 8.759236 -15.964202 -11.126692
LeftLeg 3.084497 -0.000000 -0.000000
LeftFoot -7.873893 1.415424 -13.764244
LeftToeBase 20.312629 -0.000000 -0.000000
RightUpLeg -39.968078 18.376597 8.653564
RightLeg 70.271893 -0.000000 -0.000000
RightFoot 4.974119 -14.284220 18.828510
RightToeBase 10.314609 -0.000000 -0.000000
263
root 6.307469 32.261531 -4.824734 -4.805146 41.363700 3.217552
Spine 7.537001 -11.979253 -6.230497
Head 14.274946 -12.621553 1.464396
LeftShoulder -11.505850 -7.111951 30.350705
LeftArm -1.240953 -8.526546 -84.658778
LeftForeArm -7.158793 -0.000000 108.934140
LeftHand 9.711867 0.000000 13.260461
LeftHandThumb1 -26.253704 0.000000 33.147579
RightShoulder -21.745843 -20.005674 -22.349158
RightArm 11.377649 -27.308319 93.508375
RightForeArm -14.647228 -0.000000 24.724096
RightHand 16.255765 0.000000 3.749310
RightHandThumb1 -24.326973 -0.000000 -32.862282
LeftUpLeg 8.749570 -15.929290 -11.108566
LeftLeg 3.090156 -0.000000 -0.000000
LeftFoot -7.837553 1.303131 -13.799419
LeftToeBase 20.459290 -0.000000 -0.000000
RightUpLeg -40.011800 18.376031 8.689657
RightLeg 70.095200 -0.000000 -0.000000
RightFoot 5.012483 -14.275199 18.665593
RightToeBase 10.288349 -0.000000 -0.000000
264
root 6.309718 32.262056 -4.827470 -4.794273 41.409711 3.229135
Spine 7.548288 -12.054834 -6.247166
Head 14.461205 -12.461639 1.440645
LeftShoulder -11.538041 -7.035189 30.311399
LeftArm -1.175260 -8.523279 -84.627999
LeftForeArm -7.274189 -0.000000 108.959694
LeftHand 9.748250 -0.000000 13.070415
LeftHandThumb1 -26.253704 0.000000 33.147579
RightShoulder -21.803781 -20.024107 -22.300309
RightArm 11.353681 -27.262779 93.537813
RightForeArm -14.605643 0.000000 24.994160
RightHand 16.157481 -0.000000 3.659016
RightHandThumb1 -24.326973 -0.000000 -32.862282
LeftUpLeg 8.741997 -15.920315 -11.110869
LeftLeg 3.090267 -0.000000 -0.000000
LeftFoot -7.797039 1.222909 -13.812970
LeftToeBase 20.466468 -0.000000 -0.000000
RightUpLeg -40.049817 18.400053 8.703075
RightLeg 69.939401 -0.000000 -0.000000
RightFoot 5.117302 -14.277255 18.510810
RightToeBase 10.097498 -0.000000 -0.000000
265
root 6.312800 32.262555 -4.828954 -4.796004 41.468943 3.239066
Spine 7.567783 -12.150875 -6.274369
Head 14.640828 -12.340099 1.434195
LeftShoulder -11.588440 -7.047727 30.304977
LeftArm -1.202645 -8.486613 -84.591905
LeftForeArm -7.407233 -0.000000 108.987967
LeftHand 9.771540 -0.000000 12.832618
LeftHandThumb1 -26.253704 0.000000 33.147579
RightShoulder -21.819143 -20.033954 -22.253660
RightArm 11.317621 -27.176818 93.574924
RightForeArm -14.557858 0.000000 25.285516
RightHand 16.171854 -0.000000 3.905223
RightHandThumb1 -24.326973 -0.000000 -32.862282
LeftUpLeg 8.758991 -15.905483 -11.113772
LeftLeg 3.066581 -0.000000 -0.000000
LeftFoot -7.758084 1.130833 -13.843170
LeftToeBase 20.632354 -0.000000 -0.000000
RightUpLeg -40.054394 18.449553 8.708386
RightLeg 69.765121 -0.000000 -0.000000
RightFoot 5.062573 -14.257137 18.663548
RightToeBase 10.411175 -0.000000 -0.000000
266
root 6.315349 32.262208 -4.831977 -4.782954 41.525042 3.255672
Spine 7.574930 -12.242652 -6.308275
Head 14.820807 -12.248115 1.435722
LeftShoulder -11.624375 -7.037393 30.310053
LeftArm -1.220880 -8.439644 -84.587858
LeftForeArm -7.497001 0.000000 109.024258
LeftHand 9.848964 -0.000000 12.742783
LeftHandThumb1 -26.253704 0.000000 33.147579
RightShoulder -21.817904 -20.038442 -22.223071
RightArm 11.276785 -27.085853 93.624803
RightForeArm -14.629713 0.000000 25.550959
RightHand 16.225459 -0.000000 3.831843
RightHandThumb1 -24.326973 -0.000000 -32.862282
LeftUpLeg 8.762332 -15.882596 -11.118099
LeftLeg 3.048163 -0.000000 -0.000000
LeftFoot -7.708824 1.039654 -13.828997
LeftToeBase 20.631697 -0.000000 -0.000000
RightUpLeg -40.048485 18.481418 8.713598
RightLeg 69.547672 -0.000000 -0.000000
RightFoot 5.101892 -14.276892 18.728927
RightToeBase 10.338157 -0.000000 -0.000000
267
root 6.318823 32.261163 -4.835518 -4.764102 41.588867 3.280239
Spine 7.589944 -12.307344 -6.343690
Head 14.969565 -12.199124 1.447349
LeftShoulder -11.642007 -6.998549 30.316461
LeftArm -1.191917 -8.406363 -84.631201
LeftForeArm -7.532905 -0.000000 109.070895
LeftHand 9.842994 -0.000000 12.626662
LeftHandThumb1 -26.253704 0.000000 33.147579
RightShoulder -21.842293 -20.052835 -22.195078
RightArm 11.242698 -27.040526 93.661168
RightForeArm -14.672887 -0.000000 25.794892
RightHand 16.253363 -0.000000 3.756107
RightHandThumb1 -24.326973 -0.000000 -32.862282
LeftUpLeg 8.776749 -15.887939 -11.136462
LeftLeg 3.007663 -0.000000 -0.000000
LeftFoot -7.657348 0.973689 -13.802262
LeftToeBase 20.575239 -0.000000 -0.000000
RightUpLeg -40.037524 18.507257 8.716327
RightLeg 69.346020 -0.000000 -0.000000
RightFoot 5.071364 -14.239085 18.834683
RightToeBase 10.695531 -0.000000 -0.000000
268
root 6.324657 32.258390 -4.837826 -4.729474 41.664511 3.337537
Spine 7.598597 -12.376774 -6.422636
Head 15.140433 -12.190808 1.501658
LeftShoulder -11.641764 -6.971619 30.361865
LeftArm -1.202081 -8.352284 -84.683250
LeftForeArm -7.579188 -0.000000 109.127656
LeftHand 9.915764 0.000000 12.636531
LeftHandThumb1 -26.253704 0.000000 33.147579
RightShoulder -21.839327 -20.073058 -22.175537
RightArm 11.199451 -27.042944 93.697012
RightForeArm -14.647530 -0.000000 26.040605
RightHand 16.281741 -0.000000 3.670445
RightHandThumb1 -24.326973 -0.000000 -32.862282
LeftUpLeg 8.811839 -15.921553 -11.186730
LeftLeg 2.965850 -0.000000 -0.000000
LeftFoot -7.656563 0.921471 -13.892009
LeftToeBase 20.731056 -0.000000 -0.000000
RightUpLeg -40.006198 18.624221 8.682364
RightLeg 69.152962 -0.000000 -0.000000
RightFoot 5.051126 -14.312249 18.857556
RightToeBase 10.778426 -0.000000 -0.000000
269
root 6.325517 32.257345 -4.842002 -4.702533 41.720987 3.341865
Spine 7.594343 -12.416233 -6.440403
Head 15.251130 -12.197029 1.536125
LeftShoulder -11.639136 -6.957115 30.376644
LeftArm -1.192957 -8.283040 -84.729548
LeftForeArm -7.544736 0.000000 109.207066
LeftHand 9.876826 -0.000000 12.708220
LeftHandThumb1 -26.253704 0.000000 33.147579
RightShoulder -21.854717 -20.079913 -22.144584
RightArm 11.160465 -27.046221 93.718049
RightForeArm -14.642385 0.000000 26.287184
RightHand 16.213212 -0.000000 3.670844
RightHandThumb1 -24.326973 -0.000000 -32.862282
LeftUpLeg 8.808426 -15.887639 -11.170693
LeftLeg 2.894435 -0.000000 -0.000000
LeftFoot -7.571301 0.811370 -13.903023
LeftToeBase 20.743210 -0.000000 -0.000000
RightUpLeg -39.954132 18.553490 8.706721
RightLeg 68.874670 -0.000000 -0.000000
RightFoot 5.228005 -14.289149 18.480914
RightToeBase 10.420170 -0.000000 -0.000000
